
<svg xmlns="http://www.w3.org/2000/svg" version="1.1" xmlns:xlink="http://www.w3.org/1999/xlink" preserveAspectRatio="none" x="0px" y="0px" width="500px" height="250px" viewBox="0 0 500 250">
<defs>
<g id="Layer0_0_FILL">
<path fill="#0074BC" stroke="none" d="
M 53.45 98.15
Q 42.15 87.25 47.6 62.8 29.1 89.75 36.2 104.7 45.3 122.25 81.5 122.95 117.3 125.25 160.6 113.6 201.4 104.35 248.3 81.1 177.85 110.7 107.85 113.35 67.9 114.55 53.45 98.15
M 454.4 96.5
Q 472.95 69.5 465.8 54.6 456.7 37.1 420.55 36.35 384.8 34.05 341.4 45.8 300.7 55.1 253.65 78.3 324.2 48.65 394.15 45.95 434.05 44.75 448.5 61.2 459.9 72.05 454.4 96.5 Z"/>

<path fill="#034EA2" stroke="none" d="
M 164.3 101.5
Q 202.7 97.15 248.3 80.7 180.4 100.6 115.85 95.8 79 92.75 67.4 76.2 58.1 65.05 65.65 43.15 45.85 65.95 50.85 80.4 57.35 97.5 90.55 101.95 123.2 107.75 164.3 101.5
M 451 78.9
Q 444.45 61.95 411.3 57.45 378.6 51.7 337.55 57.9 299.1 62.2 253.5 78.7 321.4 58.75 386 63.55 422.9 66.65 434.35 83.2 443.75 94.4 436.1 116.25 455.95 93.35 451 78.9 Z"/>

<path fill="#92278F" stroke="none" d="
M 170.3 91.05
Q 205.4 90.8 248.15 80.25 184.95 91.75 127.05 81.4 94.05 75.15 85.2 59.05 77.8 48.1 86.8 29 66.7 47.8 69.85 61.35 74.15 77.35 103.65 84.45 132.6 92.8 170.3 91.05
M 397.5 74.65
Q 368.55 66.3 330.9 68.05 295.75 68.3 253.05 78.95 316.2 67.35 374.15 77.75 407.1 84 416 100.05 423.35 111 414.4 130.15 434.5 111.3 431.35 97.8 427 81.8 397.5 74.65
M 114 180.5
L 114 152.45 125.4 152.45
Q 129.35 152.8 129.45 157.65
L 129.45 180.5 135.6 180.5 135.6 156.6
Q 135.75 149.9 130.9 150.05
L 107 150.05 107 180.5 114 180.5
M 36.8 178.05
L 36.8 180.5 63.3 180.5 63.3 178.05 53.55 178.05 53.55 152.7
Q 53 150.75 51.25 150.05
L 36.8 150.05 36.8 152.25 46.55 152.4 46.55 178.05 36.8 178.05
M 72.05 142.1
L 72.05 144.55 81.8 144.55 81.8 178.05 72.05 178.05 72.05 180.5 98.55 180.5 98.55 178.05 88.8 178.05 88.8 144.55 98.55 144.55 98.55 142.1 72.05 142.1
M 276.85 152.45
L 276.85 150.05 259.1 150.05
Q 255.35 149.9 253.15 151.75 252.8 152.05 252.5 152.45 251 153.95 250.45 157.3 250.35 157.9 250.25 158.65
L 250.25 171.9
Q 250.7 176.25 252.5 178.1 254.7 180.65 259.1 180.5
L 276.85 180.5 276.85 178.05 261.3 178.05
Q 257.55 177.9 257.25 174.5
L 257.25 156.05
Q 257.55 152.65 261.3 152.45
L 276.85 152.45
M 292.95 142.25
L 285.95 142.25 285.95 180.5 292.95 180.5 292.95 152.45 304.35 152.45
Q 308.3 152.8 308.4 157.65
L 308.4 180.5 314.55 180.5 314.55 156.6
Q 314.75 149.9 309.85 150.05
L 292.95 150.05 292.95 142.25
M 223.45 156.05
Q 223.75 152.65 227.5 152.45
L 243.05 152.45 243.05 150.05 225.3 150.05
Q 220.9 149.9 218.7 152.45 216.9 154.3 216.45 158.65
L 216.45 180.5 223.45 180.5 223.45 156.05
M 170.5 152.45
L 170.5 150.05 159.9 150.05 159.9 142.25 153.75 142.25 153.75 150.05 144 150.05 144 152.45 153.75 152.45 153.75 173.5
Q 153.75 179 157.2 180.1 160.05 181.3 167.35 180.5
L 167.35 178.25
Q 165.15 178.5 163 177.65 160.85 176.8 159.9 173.7
L 159.9 152.45 170.5 152.45
M 201.5 150.05
L 187.15 150.05
Q 183.4 149.9 181.2 151.75 180.85 152.05 180.55 152.45 179.05 153.95 178.5 157.3 178.4 157.9 178.3 158.65
L 178.3 171.9
Q 178.75 176.25 180.55 178.1 182.75 180.65 187.15 180.5
L 203.65 180.5 203.65 178.05 189.35 178.05
Q 185.6 177.9 185.3 174.5
L 185.3 166.95 202.95 166.95
Q 207.15 166.55 207.15 161.5
L 207.15 156.9
Q 207.3 150.05 201.5 150.05
M 198.7 152.45
Q 201.6 153.2 201.85 155.65
L 201.85 161.15
Q 201.5 164.15 198.7 164.55
L 186.55 164.55
Q 185.4 164.35 185.3 163.25
L 185.3 156.05
Q 185.6 152.65 189.35 152.45
L 198.7 152.45
M 432.05 157.3
Q 431.95 157.9 431.85 158.65
L 431.85 171.9
Q 432.3 176.25 434.05 178.1 436.3 180.65 440.7 180.5
L 457.2 180.5 457.2 178.05 442.9 178.05
Q 439.15 177.9 438.85 174.5
L 438.85 166.95 456.5 166.95
Q 460.65 166.55 460.65 161.5
L 460.65 156.9
Q 460.85 150.05 455.05 150.05
L 440.7 150.05
Q 436.95 149.9 434.75 151.75 434.4 152.05 434.05 152.45 432.6 153.95 432.05 157.3
M 440.1 164.55
Q 438.9 164.35 438.85 163.25
L 438.85 156.05
Q 439.15 152.65 442.9 152.45
L 452.25 152.45
Q 455.15 153.2 455.35 155.65
L 455.35 161.15
Q 455.05 164.15 452.25 164.55
L 440.1 164.55
M 401.85 150.05
Q 398.5 150.75 396.95 155.9 394.95 163.55 396.05 171.3 397.3 179.65 400.6 180.7
L 418.15 180.7 418.15 185.35
Q 418.1 186.25 417.8 186.85 417.2 188.2 415.7 188.65 415 188.9 414.1 188.95
L 400.45 188.95 400.45 191.4 415.05 191.4
Q 419.45 191.55 421.65 189 421.8 188.85 421.95 188.65 422.5 187.95 422.95 186.85 423.6 185.25 423.9 182.8
L 423.9 150.05 401.85 150.05
M 402.25 172.75
Q 401.55 166.6 402.25 160.6 402.95 153.1 405.2 152.45
L 418.15 152.45 418.15 178.25 404.85 178.25
Q 402.3 176.45 402.25 172.75
M 359.1 150.05
L 359.1 180.5 366.05 180.5 366.05 152.45 377.5 152.45
Q 381.45 152.8 381.5 157.65
L 381.5 180.5 387.7 180.5 387.7 156.6
Q 387.85 149.9 382.95 150.05
L 359.1 150.05
M 345.15 156.05
L 345.15 163.55 327.45 163.55
Q 323.3 164 323.3 169.05
L 323.3 173.65
Q 323.1 180.5 328.9 180.5
L 352.1 180.5 352.1 158.65
Q 351.65 154.3 349.9 152.45 347.65 149.9 343.3 150.05
L 326.8 150.05 326.8 152.45 341.05 152.45
Q 344.8 152.65 345.15 156.05
M 328.6 169.4
Q 328.9 166.4 331.7 166
L 343.85 166
Q 345.05 166.2 345.15 167.3
L 345.15 178.05 331.7 178.05
Q 328.8 177.35 328.6 174.9
L 328.6 169.4 Z"/>

<path fill="#000000" stroke="none" d="
M 170.5 206.25
L 170.5 217.8 172.35 217.8 172.35 206.25 170.5 206.25
M 172.4 204.55
L 172.4 202.55 170.5 202.55 170.5 204.55 172.4 204.55
M 183.4 217.8
Q 185.2 217.8 185.2 216.05
L 185.2 209.45
Q 185.2 206.25 182.2 206.25
L 176.1 206.25 176.1 207.75 181.7 207.75
Q 183.35 207.75 183.35 209.4
L 183.35 210.8 178.2 210.8
Q 175.25 210.8 175.25 214.25 175.25 217.8 178.2 217.8
L 183.4 217.8
M 183.35 212.25
L 183.35 215.7
Q 183.35 216.3 182.75 216.3
L 178.6 216.3
Q 177.15 216.3 177.15 214.25 177.15 212.25 178.6 212.25
L 183.35 212.25
M 198.3 210
Q 198.3 206.25 194.35 206.25
L 190.25 206.25
Q 188.45 206.25 188.45 208.15
L 188.45 217.8 190.3 217.8 190.3 208.45
Q 190.3 207.75 190.95 207.75
L 194.15 207.75
Q 196.45 207.75 196.45 210.35
L 196.45 217.8 198.3 217.8 198.3 210
M 221 202.55
L 206.65 202.55 206.65 204.2 212.8 204.2 212.8 217.8 214.85 217.8 214.85 204.2 221 204.2 221 202.55
M 228.05 206.1
Q 225.15 206.1 224 207.5 222.8 208.85 222.8 212.05 222.8 214.95 223.6 216.25 224.55 217.8 226.95 217.8
L 233 217.8 233 216.3 227.4 216.3
Q 225.8 216.3 225.15 215.2 224.7 214.35 224.7 212.65
L 231.6 212.65
Q 233.3 212.65 233.3 210.6 233.3 208.15 231.8 207.05 230.55 206.1 228.05 206.1
M 225.5 208.4
Q 226.25 207.6 228.05 207.6 231.35 207.6 231.35 210.45
L 231.35 210.55
Q 231.35 211.15 230.85 211.15
L 224.7 211.15
Q 224.7 209.2 225.5 208.4
M 245.15 207.75
L 245.15 206.25 240.75 206.25
Q 238 206.25 236.85 207.8 235.85 209.15 235.85 212 235.85 214.9 236.85 216.25 238 217.8 240.75 217.8
L 245.35 217.8 245.35 216.3 241.05 216.3
Q 239.05 216.3 238.35 215.2 237.75 214.25 237.75 212 237.75 209.8 238.35 208.9 239.05 207.75 241.05 207.75
L 245.15 207.75
M 257.7 210.15
Q 257.7 206.25 253.65 206.25
L 249.65 206.25 249.65 202.55 247.85 202.55 247.85 217.8 249.65 217.8 249.65 207.75 253.45 207.75
Q 255.85 207.75 255.85 210.4
L 255.85 217.8 257.7 217.8 257.7 210.15
M 266.6 207.75
Q 268.95 207.75 268.95 210.35
L 268.95 217.8 270.8 217.8 270.8 210
Q 270.8 206.25 266.85 206.25
L 262.7 206.25
Q 260.95 206.25 260.95 208.15
L 260.95 217.8 262.75 217.8 262.75 208.45
Q 262.75 207.75 263.45 207.75
L 266.6 207.75
M 284.15 216.6
Q 285.55 215.2 285.55 211.95 285.55 208.75 284.15 207.45 282.8 206.1 279.6 206.1 276.45 206.1 275.1 207.45 273.7 208.75 273.7 211.95 273.7 215.2 275.1 216.6 276.45 217.95 279.6 217.95 282.8 217.95 284.15 216.6
M 279.6 207.6
Q 281.85 207.6 282.75 208.55 283.6 209.55 283.6 211.95 283.6 214.45 282.75 215.45 281.85 216.45 279.6 216.45 277.4 216.45 276.5 215.45 275.6 214.45 275.6 211.95 275.6 209.55 276.5 208.55 277.4 207.6 279.6 207.6
M 290.25 202.55
L 288.45 202.55 288.45 217.8 290.25 217.8 290.25 202.55
M 303.65 207.45
Q 302.25 206.1 299.1 206.1 295.95 206.1 294.55 207.45 293.15 208.75 293.15 211.95 293.15 215.2 294.55 216.6 295.95 217.95 299.1 217.95 302.25 217.95 303.65 216.6 305.05 215.2 305.05 211.95 305.05 208.75 303.65 207.45
M 299.1 207.6
Q 301.3 207.6 302.25 208.55 303.1 209.55 303.1 211.95 303.1 214.45 302.25 215.45 301.3 216.45 299.1 216.45 296.9 216.45 296 215.45 295.05 214.45 295.05 211.95 295.05 209.55 296 208.55 296.9 207.6 299.1 207.6
M 317.15 206.55
Q 316.55 206.25 315 206.25
L 312.35 206.25
Q 309.6 206.25 308.5 207.8 307.55 209.1 307.55 212 307.55 215 308.5 216.3 309.6 217.8 312.35 217.8
L 316.1 217.8
Q 315.8 220.05 313.15 220.05
L 308.35 220.05 308.35 221.55 313.15 221.55
Q 315.8 221.55 316.9 220.3 317.9 219.15 317.9 216.7
L 317.9 208.25
Q 317.9 207 317.15 206.55
M 315.3 207.75
Q 316.1 207.75 316.1 208.5
L 316.1 216.3 312.7 216.3
Q 310.7 216.3 310 215.2 309.45 214.3 309.45 212 309.45 209.8 310 208.9 310.75 207.75 312.7 207.75
L 315.3 207.75
M 95.1 202.55
L 92.85 202.55 87.65 211.15 82.5 202.55 80.25 202.55 86.65 212.95 86.65 217.8 88.7 217.8 88.7 212.95 95.1 202.55
M 107.15 207.45
Q 105.8 206.1 102.6 206.1 99.45 206.1 98.1 207.45 96.65 208.75 96.65 211.95 96.65 215.2 98.1 216.6 99.45 217.95 102.6 217.95 105.8 217.95 107.15 216.6 108.55 215.2 108.55 211.95 108.55 208.75 107.15 207.45
M 102.6 207.6
Q 104.85 207.6 105.75 208.55 106.6 209.55 106.6 211.95 106.6 214.45 105.75 215.45 104.85 216.45 102.6 216.45 100.4 216.45 99.5 215.45 98.55 214.45 98.55 211.95 98.55 209.55 99.5 208.55 100.4 207.6 102.6 207.6
M 113.2 206.25
L 111.4 206.25 111.4 214.05
Q 111.4 217.8 115.3 217.8
L 119.6 217.8
Q 121.35 217.8 121.35 215.9
L 121.35 206.25 119.5 206.25 119.5 215.6
Q 119.5 216.3 118.85 216.3
L 115.55 216.3
Q 113.2 216.3 113.2 213.75
L 113.2 206.25
M 127.05 208.5
Q 127.75 207.75 129.2 207.75
L 130.15 207.75 130.15 206.25 128.9 206.25
Q 124.65 206.25 124.65 210.4
L 124.65 217.8 126.45 217.8 126.45 210.85
Q 126.45 209.25 127.05 208.5
M 140.8 202.55
L 138.75 202.55 138.75 217.8 140.8 217.8 140.8 202.55
M 146.25 208.45
Q 146.25 207.75 146.9 207.75
L 150.1 207.75
Q 152.4 207.75 152.4 210.35
L 152.4 217.8 154.25 217.8 154.25 210
Q 154.25 206.25 150.3 206.25
L 146.2 206.25
Q 144.4 206.25 144.4 208.15
L 144.4 217.8 146.25 217.8 146.25 208.45
M 161.95 206.25
Q 159.25 206.25 158.1 207.8 157.15 209.1 157.15 212 157.15 215 158.1 216.3 159.25 217.8 161.95 217.8
L 165.5 217.8
Q 167.25 217.8 167.25 216
L 167.25 202.55 165.4 202.55 165.4 206.25 161.95 206.25
M 159.65 215.2
Q 159.05 214.3 159.05 212 159.05 209.8 159.65 208.9 160.35 207.75 162.3 207.75
L 165.4 207.75 165.4 215.5
Q 165.4 216.3 164.65 216.3
L 162.3 216.3
Q 160.35 216.3 159.65 215.2
M 331.95 206.25
L 330.05 206.25 325.9 215.8 321.85 206.25 319.9 206.25 324.95 217.8 323.15 221.5 325.05 221.5 331.95 206.25
M 353.4 207.2
Q 353.4 204.9 352.6 203.8 351.65 202.55 349.5 202.55
L 342.5 202.55
Q 340.4 202.55 340.4 204.6
L 340.4 217.8 342.45 217.8 342.45 211.95 349.5 211.95
Q 351.7 211.95 352.6 210.75 353.4 209.6 353.4 207.2
M 350.85 209.5
Q 350.3 210.35 348.75 210.35
L 342.45 210.35 342.45 205.2
Q 342.45 204.6 342.65 204.45 342.8 204.2 343.45 204.2
L 348.75 204.2
Q 350.25 204.2 350.8 204.95 351.3 205.6 351.3 207.2 351.3 208.9 350.85 209.5
M 365.9 216.05
L 365.9 209.45
Q 365.9 206.25 362.9 206.25
L 356.8 206.25 356.8 207.75 362.4 207.75
Q 364.05 207.75 364.05 209.4
L 364.05 210.8 358.9 210.8
Q 355.9 210.8 355.9 214.25 355.9 217.8 358.9 217.8
L 364.05 217.8
Q 365.9 217.8 365.9 216.05
M 364.05 215.7
Q 364.05 216.3 363.45 216.3
L 359.25 216.3
Q 357.8 216.3 357.8 214.25 357.8 212.25 359.25 212.25
L 364.05 212.25 364.05 215.7
M 374.7 207.75
L 374.7 206.25 373.4 206.25
Q 369.15 206.25 369.15 210.4
L 369.15 217.8 370.95 217.8 370.95 210.85
Q 370.95 209.25 371.6 208.5 372.25 207.75 373.7 207.75
L 374.7 207.75
M 379.4 202.55
L 377.55 202.55 377.55 206.25 375.85 206.25 375.85 207.75 377.55 207.75 377.55 214.1
Q 377.55 215.95 378.3 216.8 379.15 217.8 381.25 217.8
L 382.6 217.8 382.6 216.3 381.85 216.3
Q 380.5 216.3 379.95 215.8 379.4 215.3 379.4 214
L 379.4 207.75 382.6 207.75 382.6 206.25 379.4 206.25 379.4 202.55
M 387.35 207.75
L 390.55 207.75
Q 392.85 207.75 392.85 210.35
L 392.85 217.8 394.7 217.8 394.7 210
Q 394.7 206.25 390.75 206.25
L 386.65 206.25
Q 384.85 206.25 384.85 208.15
L 384.85 217.8 386.7 217.8 386.7 208.45
Q 386.7 207.75 387.35 207.75
M 407.8 217.8
L 407.8 216.3 402.2 216.3
Q 400.6 216.3 399.95 215.2 399.5 214.35 399.5 212.65
L 406.4 212.65
Q 408.1 212.65 408.1 210.6 408.1 208.15 406.6 207.05 405.35 206.1 402.85 206.1 399.95 206.1 398.8 207.5 397.6 208.85 397.6 212.05 397.6 214.95 398.35 216.25 399.3 217.8 401.75 217.8
L 407.8 217.8
M 406.15 210.45
L 406.15 210.55
Q 406.15 211.15 405.65 211.15
L 399.5 211.15
Q 399.5 209.2 400.25 208.4 401.05 207.6 402.85 207.6 406.15 207.6 406.15 210.45
M 416.5 206.25
L 415.25 206.25
Q 410.95 206.25 410.95 210.4
L 410.95 217.8 412.8 217.8 412.8 210.85
Q 412.8 209.25 413.4 208.5 414.1 207.75 415.55 207.75
L 416.5 207.75 416.5 206.25 Z"/>

<path fill="#FF0000" stroke="none" d="
M 45.8 144.1
Q 45.8 145.65 46.85 146.65 47.9 147.75 49.45 147.75 51 147.75 52.05 146.65 53.15 145.65 53.15 144.1 53.15 142.55 52.05 141.45 51 140.4 49.45 140.4 47.9 140.4 46.85 141.45 45.8 142.55 45.8 144.1 Z"/>
</g>
</defs>

<g transform="matrix( 1, 0, 0, 1, 0,0) ">
<use xlink:href="#Layer0_0_FILL"/>
</g>
</svg>
